<?xml version="1.0" encoding="UTF-8" standalone="no"?>
<!-- Created with Inkscape (http://www.inkscape.org/) -->

<svg
   width="76.411606mm"
   height="10.343434mm"
   viewBox="0 0 76.411606 10.343434"
   version="1.1"
   id="svg1"
   xmlns="http://www.w3.org/2000/svg"
   xmlns:svg="http://www.w3.org/2000/svg">
  <defs
     id="defs1" />
  <g
     id="layer1"
     transform="translate(-69.527109,-79.233534)">
    <g
       id="text12"
       style="font-size:14.1111px;font-family:Neuropol;-inkscape-font-specification:'Neuropol, Normal';stroke:#1abc9c;stroke-width:0;stroke-miterlimit:0"
       aria-label="ATOMET">
      <path
         d="m 76.526219,79.233535 c -0.564444,0 -0.90311,0.183445 -1.114777,0.493889 l -5.785551,8.777104 c -0.05644,0.09878 -0.09878,0.197556 -0.09878,0.310444 0,0.437445 0.550333,0.762 1.015999,0.762 0.239889,0 0.479777,-0.08467 0.606777,-0.282222 l 1.566332,-2.427109 h 7.845772 l 1.66511,2.427109 c 0.141111,0.197555 0.366888,0.282222 0.620888,0.282222 0.479778,0 1.030111,-0.324555 1.030111,-0.747888 0,-0.09878 -0.02822,-0.211667 -0.09878,-0.324556 L 77.62688,79.727424 C 77.401108,79.41698 77.076552,79.233535 76.526219,79.233535 Z m 0,1.721555 2.991554,4.388552 h -5.827885 z m 15.66334,-0.155223 c 0.451555,0 0.550332,-0.253999 0.550332,-0.761999 0,-0.508 -0.09878,-0.761999 -0.550332,-0.761999 h -10.38577 c -0.451555,0 -0.550333,0.253999 -0.550333,0.761999 0,0.508 0.09878,0.761999 0.550333,0.761999 h 4.247441 v 8.099772 c 0,0.536222 0.324555,0.663222 0.931333,0.663222 0.620888,0 0.945443,-0.127 0.945443,-0.663222 v -8.099772 z m 9.256871,8.706549 c 2.77988,0 4.17688,-0.874888 4.17688,-2.624664 v -4.981219 c 0,-1.763887 -1.397,-2.624664 -4.17688,-2.624664 h -4.106335 c -2.779887,0 -4.176886,0.860777 -4.176886,2.624664 v 4.981219 c 0,1.749776 1.396999,2.624664 4.176886,2.624664 z m -0.0565,-1.523999 h -3.993441 c -1.650998,0 -2.370665,-0.493888 -2.370665,-1.100665 v -4.981219 c 0,-0.620888 0.719667,-1.100666 2.370665,-1.100666 h 3.993441 c 1.651,0 2.37067,0.479778 2.37067,1.100666 v 4.981219 c 0,0.606777 -0.71967,1.100665 -2.37067,1.100665 z"
         id="path14" />
      <path
         style="fill:#2164c1"
         d="m 115.45874,87.62964 -6.4911,-7.831661 c -0.28223,-0.324555 -0.635,-0.493888 -1.11478,-0.493888 -0.67733,0 -1.03011,0.324555 -1.03011,0.959555 v 8.635993 c 0,0.536222 0.32455,0.663222 0.93133,0.663222 0.62089,0 0.94544,-0.127 0.94544,-0.663222 v -6.688661 l 5.64444,6.815661 c 0.29634,0.366889 0.64912,0.536222 1.18534,0.536222 0.49389,0 0.79022,-0.155222 1.11477,-0.536222 l 5.63033,-6.815661 v 6.688661 c 0,0.536222 0.32456,0.663222 0.94545,0.663222 0.62089,0 0.94544,-0.127 0.94544,-0.663222 v -8.635993 c 0,-0.635 -0.35278,-0.959555 -1.04422,-0.959555 -0.45156,0 -0.81844,0.141111 -1.11478,0.493888 z"
         id="path15" />
      <path
         d="m 136.38551,85.230753 c 0.45155,0 0.55033,-0.254 0.55033,-0.761999 0,-0.508 -0.0988,-0.762 -0.55033,-0.762 h -9.15811 v -1.806221 c 0,-0.620888 0.71967,-1.100666 2.37067,-1.100666 h 2.04611 c 0.43744,0 0.53622,-0.253999 0.53622,-0.761999 0,-0.508 -0.0988,-0.761999 -0.53622,-0.761999 h -2.10256 c -2.77989,0 -4.17688,0.860777 -4.17688,2.624664 v 4.981219 c 0,1.749776 1.39699,2.624664 4.17688,2.624664 h 6.80155 c 0.45156,0 0.55033,-0.268111 0.55033,-0.761999 0,-0.508 -0.0988,-0.762 -0.55033,-0.762 h -6.7451 c -1.651,0 -2.37067,-0.493888 -2.37067,-1.100665 v -1.650999 z m 9.00288,-4.430886 c 0.45155,0 0.55033,-0.253999 0.55033,-0.761999 0,-0.508 -0.0988,-0.761999 -0.55033,-0.761999 h -10.38577 c -0.45156,0 -0.55034,0.253999 -0.55034,0.761999 0,0.508 0.0988,0.761999 0.55034,0.761999 h 4.24744 v 8.099772 c 0,0.536222 0.32455,0.663222 0.93133,0.663222 0.62089,0 0.94544,-0.127 0.94544,-0.663222 v -8.099772 z"
         id="path16" />
    </g>
  </g>
</svg>
