<?xml version="1.0" encoding="UTF-8" standalone="no"?>
<!-- Created with Inkscape (http://www.inkscape.org/) -->

<svg
   width="76.411606mm"
   height="10.343434mm"
   viewBox="0 0 76.411606 10.343434"
   version="1.1"
   id="svg1"
   xmlns="http://www.w3.org/2000/svg"
   xmlns:svg="http://www.w3.org/2000/svg">
  <defs
     id="defs1" />
  <g
     id="layer1"
     transform="translate(-62.810903,-96.540685)">
    <g
       id="text16"
       style="font-size:14.1111px;font-family:Neuropol;-inkscape-font-specification:'Neuropol, Normal';fill:#2164c1;stroke:#1abc9c;stroke-width:0;stroke-miterlimit:0"
       aria-label="ATOMET">
      <path
         style="fill:#ffffff"
         d="m 69.81001,96.540687 c -0.564444,0 -0.90311,0.183444 -1.114777,0.493889 l -5.785551,8.777104 c -0.05644,0.0988 -0.09878,0.19756 -0.09878,0.31044 0,0.43745 0.550333,0.762 1.015999,0.762 0.239889,0 0.479778,-0.0847 0.606778,-0.28222 l 1.566332,-2.42711 h 7.845772 l 1.665109,2.42711 c 0.141111,0.19756 0.366889,0.28222 0.620889,0.28222 0.479777,0 1.03011,-0.32455 1.03011,-0.74788 0,-0.0988 -0.02822,-0.21167 -0.09878,-0.32456 L 70.910676,97.034576 C 70.684898,96.724131 70.360343,96.540687 69.81001,96.540687 Z m 0,1.721554 2.991553,4.388549 h -5.827884 z m 15.663339,-0.155222 c 0.451555,0 0.550333,-0.254 0.550333,-0.761999 0,-0.508 -0.09878,-0.762 -0.550333,-0.762 h -10.38577 c -0.451555,0 -0.550333,0.254 -0.550333,0.762 0,0.507999 0.09878,0.761999 0.550333,0.761999 h 4.247442 v 8.099771 c 0,0.53622 0.324555,0.66322 0.931332,0.66322 0.620889,0 0.945444,-0.127 0.945444,-0.66322 v -8.099771 z m 9.256867,8.706551 c 2.779886,0 4.176885,-0.87489 4.176885,-2.62467 v -4.981215 c 0,-1.763887 -1.396999,-2.624665 -4.176885,-2.624665 h -4.10633 c -2.779887,0 -4.176886,0.860778 -4.176886,2.624665 v 4.981215 c 0,1.74978 1.396999,2.62467 4.176886,2.62467 z m -0.05644,-1.524 H 90.68033 c -1.650999,0 -2.370665,-0.49389 -2.370665,-1.10067 v -4.981215 c 0,-0.620888 0.719666,-1.100666 2.370665,-1.100666 h 3.993441 c 1.650999,0 2.370665,0.479778 2.370665,1.100666 v 4.981215 c 0,0.60678 -0.719666,1.10067 -2.370665,1.10067 z"
         id="path19" />
      <path
         d="m 108.74253,104.93679 -6.4911,-7.831659 c -0.28223,-0.324555 -0.635,-0.493888 -1.11478,-0.493888 -0.67733,0 -1.03011,0.324555 -1.03011,0.959554 v 8.635993 c 0,0.53622 0.32455,0.66322 0.93133,0.66322 0.62089,0 0.94545,-0.127 0.94545,-0.66322 v -6.688661 l 5.64444,6.815661 c 0.29633,0.36689 0.64911,0.53622 1.18533,0.53622 0.49389,0 0.79022,-0.15522 1.11477,-0.53622 l 5.63033,-6.815661 v 6.688661 c 0,0.53622 0.32456,0.66322 0.94545,0.66322 0.62089,0 0.94544,-0.127 0.94544,-0.66322 v -8.635993 c 0,-0.634999 -0.35278,-0.959554 -1.04422,-0.959554 -0.45156,0 -0.81844,0.141111 -1.11478,0.493888 z"
         id="path20" />
      <path
         style="fill:#ffffff"
         d="m 129.6693,102.5379 c 0.45155,0 0.55033,-0.254 0.55033,-0.76199 0,-0.508 -0.0988,-0.762 -0.55033,-0.762 h -9.15811 v -1.806225 c 0,-0.620888 0.71967,-1.100666 2.37067,-1.100666 h 2.04611 c 0.43744,0 0.53622,-0.254 0.53622,-0.761999 0,-0.508 -0.0988,-0.762 -0.53622,-0.762 h -2.10256 c -2.77988,0 -4.17688,0.860778 -4.17688,2.624665 v 4.981215 c 0,1.74978 1.397,2.62467 4.17688,2.62467 h 6.80155 c 0.45156,0 0.55034,-0.26811 0.55034,-0.762 0,-0.508 -0.0988,-0.762 -0.55034,-0.762 h -6.7451 c -1.651,0 -2.37067,-0.49389 -2.37067,-1.10067 v -1.651 z m 9.00288,-4.430881 c 0.45155,0 0.55033,-0.254 0.55033,-0.761999 0,-0.508 -0.0988,-0.762 -0.55033,-0.762 h -10.38577 c -0.45156,0 -0.55033,0.254 -0.55033,0.762 0,0.507999 0.0988,0.761999 0.55033,0.761999 h 4.24744 v 8.099771 c 0,0.53622 0.32455,0.66322 0.93133,0.66322 0.62089,0 0.94545,-0.127 0.94545,-0.66322 v -8.099771 z"
         id="path21" />
    </g>
  </g>
</svg>
